# xmcd
#
# Track frame offsets: 
#        150
#        12714
#        32177
#        41546
#        54249
#        80821
#        98322
#        112019
#        124453
#        138053
#        149172
#        165459
#        179150
#
# Disc length: 2439 seconds
#
# Revision: 0
# Processed by: cddbd v1.5.2PL0 Copyright (c) Steve Scherf et al.
# Submitted via: ExactAudioCopy v0.95a5
#
DISCID=ba09850d
DTITLE=Dale Potter and The Beeliners - Charleston, SC Feb 16,1986
DYEAR=1986
DGENRE=Country
TTITLE0=Crazy Arms
TTITLE1=Dale Tells Jokes
TTITLE2=Hot Canary
TTITLE3=Back Up and Push
TTITLE4=Midnight In Amarillo
TTITLE5=Play Some Mtn Music
TTITLE6=Westphalia Waltz
TTITLE7=Rocky Top
TTITLE8=The Healing Hand Of Time
TTITLE9=Ida Red
TTITLE10=Don't You Ever Get Tired (Of Hurting Me)
TTITLE11=Dale's Boogie
TTITLE12=Redwing
EXTD=
EXTT0=
EXTT1=
EXTT2=
EXTT3=
EXTT4=
EXTT5=
EXTT6=
EXTT7=
EXTT8=
EXTT9=
EXTT10=
EXTT11=
EXTT12=
PLAYORDER=
